<?xml version="1.0" encoding="UTF-8" standalone="no"?> <svg xmlns:inkscape="http://www.inkscape.org/namespaces/inkscape" xmlns:sodipodi="http://sodipodi.sourceforge.net/DTD/sodipodi-0.dtd" xmlns="http://www.w3.org/2000/svg" xmlns:svg="http://www.w3.org/2000/svg" version="1.1" id="svg2" xml:space="preserve" width="232" height="101.33333" viewBox="0 0 232 101.33333" sodipodi:docname="Fabema-logo.eps"><defs id="defs6"></defs><g id="g8" inkscape:groupmode="layer" inkscape:label="ink_ext_XXXXXX" transform="matrix(1.3333333,0,0,-1.3333333,0,101.33333)"><g id="g10" transform="scale(0.1)"><path d="m 61.7891,652.113 v -75 H 194.52 V 527.621 H 61.0508 V 402.395 H 7.01953 V 699.383 H 200.539 v -47.27 z m 394.4879,-248.98 -37.5,81.019 h -94.488 l 18.75,47.961 h 61.477 l -47.957,111.762 -97.5,-240.004 h -56.246 l 125.226,295.512 h 58.516 L 514.059,402.395 h -57.782 z m 261.758,155.23 c 38.985,-7.5 58.524,-30 58.524,-67.5 0,-58.472 -30.789,-87.73 -92.27,-87.73 H 550.766 v 296.25 h 138.011 c 56.25,0 84.032,-23.238 84.032,-68.981 0.738,-33.746 -18.012,-57.781 -54.774,-72.039 z m -32.269,93.75 H 605.539 V 451.145 h 77.27 c 23.976,0 35.968,12.73 35.968,37.5 0,30.738 -18.007,46.476 -53.98,46.476 h -16.531 v 35.281 c 45.793,7.5 68.293,26.993 68.293,56.993 -0.793,16.48 -10.512,24.718 -30.793,24.718 z M 1017.3,450.402 V 402.395 H 820.766 v 296.988 h 193.524 v -47.27 H 875.539 v -75 H 1008.27 V 527.621 H 875.539 V 449.613 H 1017.3 Z m 318,-47.269 v 206.25 l -80.28,-206.988 h -46.48 l -81.75,206.988 V 402.395 h -50.23 v 296.988 h 56.99 l 99.72,-225 98.28,225 h 54.73 V 402.395 h -50.98 z m 339.72,0 -36.75,81.019 h -95.23 l 18.75,47.961 h 61.48 l -47.97,111.762 -97.5,-240.004 h -56.25 l 125.24,295.512 h 58.51 l 127.5,-296.988 h -57.78 v 0.738" style="fill:#ffffff;fill-opacity:1;fill-rule:evenodd;stroke:none" id="path12"></path><path d="m 268.039,55.125 v 206.25 l -80.23,-206.25 h -47.27 L 58.0391,261.375 V 54.3867 H 7.80859 V 351.375 H 64.8008 l 100.5082,-225 98.242,225 H 318.27 V 54.3867 h -50.231 z m 310.508,47.273 V 54.3867 H 381.281 V 351.375 H 576.277 V 304.156 H 435.305 v -75 H 568.777 V 179.613 H 435.305 V 101.656 H 578.547 Z M 746.559,304.156 V 55.125 h -54.77 V 304.156 H 607.02 v 47.957 h 225 v -47.957 z m 319.491,-249.031 -37.5,81.02 h -95.28 l 18.746,48.011 h 61.534 l -48.011,110.973 -97.5,-240.004 h -56.254 l 126.024,296.988 h 59.207 L 1126.05,55.125 Z m 95.23,0 v 296.25 h 54.76 V 102.398 h 138.75 V 54.3867 h -193.51 z m 245.27,0 v 296.25 h 54.72 V 54.3867 h -54.72 z m 116.25,0 c -17.26,0 -26.25,9.0313 -26.25,26.9883 0,16.5351 8.25,24.7737 25.46,24.7737 4.54,0 8.29,-0.739 12.04,-2.27 v 21.758 h 13.47 V 58.1367 c -8.23,-2.2695 -16.48,-3.0117 -24.72,-3.0117 z m 11.25,38.2422 c -3.75,1.5312 -7.5,3.0078 -12.04,3.0078 -8.23,0 -11.98,-4.4883 -11.98,-13.4687 0,-11.25 3.75,-16.5274 11.98,-16.5274 4.54,0 9.03,0.7383 12.04,2.2656 z m 24.73,-38.2422 v 11.9922 h 13.51 V 55.125 Z m 47.27,-0.7383 c -17.28,0 -26.26,8.9805 -26.26,26.25 0,18.0117 8.98,26.9883 26.25,26.9883 17.23,0 26.26,-8.9766 26.26,-26.9883 0,-17.2695 -9.03,-26.25 -26.25,-26.25 z m 0,42.7305 c -9.03,0 -13.53,-5.2305 -13.53,-15.7422 0,-11.2461 4.5,-16.4766 13.52,-16.4766 8.99,0 13.48,5.2305 13.48,16.4766 0,10.5117 -4.5,15.7422 -13.47,15.7422 z m 34.49,-41.9922 v 11.9922 h 13.51 V 55.125 Z m 47.26,-0.7383 c -17.26,0 -26.25,8.9805 -26.25,26.25 0,18.0117 8.99,26.9883 26.25,26.9883 17.23,0 26.25,-8.9766 26.25,-26.9883 0,-17.2695 -8.29,-26.25 -26.25,-26.25 z m 0,42.7305 c -9.03,0 -13.51,-5.2305 -13.51,-15.7422 0,-11.2461 4.48,-16.4766 13.51,-16.4766 8.99,0 13.47,5.2305 13.47,16.4766 0.01,10.5117 -4.48,15.7422 -13.47,15.7422 z m 34.5,-41.9922 v 11.9922 h 13.47 V 55.125 h -13.47" style="fill:#ffffff;fill-opacity:1;fill-rule:evenodd;stroke:none" id="path14"></path><path d="m 163.781,148.137 90,203.976 H 73.7813 Z" style="fill:#f20000;fill-opacity:1;fill-rule:evenodd;stroke:none" id="path16"></path><path d="m 1232.52,496.883 90,203.98 h -180 z" style="fill:#f20000;fill-opacity:1;fill-rule:evenodd;stroke:none" id="path18"></path><path d="M 5.53906,751.883 H 1735.03 v -15 H 5.53906 v 15" style="fill:#f20000;fill-opacity:1;fill-rule:evenodd;stroke:none" id="path20"></path><path d="M 5.53906,16.8867 H 1735.03 V 1.88672 H 5.53906 V 16.8867" style="fill:#f20000;fill-opacity:1;fill-rule:evenodd;stroke:none" id="path22"></path></g></g></svg> 